<svg width="960" height="1180" viewBox="0 0 960 1180" fill="none" xmlns="http://www.w3.org/2000/svg">
  <rect width="960" height="1180" rx="42" fill="#100D1D"/>
  <rect width="960" height="1180" rx="42" fill="url(#bgGlow)"/>
  <rect x="46" y="44" width="868" height="1092" rx="30" fill="#171229" stroke="#5F4C25" stroke-width="2"/>

  <rect x="98" y="112" width="764" height="938" rx="22" fill="#0F0D1D" stroke="#3A2E17" stroke-width="2"/>

  <rect x="134" y="166" width="692" height="26" rx="13" fill="#4F3C1D"/>
  <rect x="134" y="356" width="692" height="26" rx="13" fill="#4F3C1D"/>
  <rect x="134" y="546" width="692" height="26" rx="13" fill="#4F3C1D"/>
  <rect x="134" y="736" width="692" height="26" rx="13" fill="#4F3C1D"/>
  <rect x="134" y="926" width="692" height="26" rx="13" fill="#4F3C1D"/>

  <rect x="170" y="136" width="16" height="828" rx="8" fill="#4B381B"/>
  <rect x="380" y="136" width="16" height="828" rx="8" fill="#4B381B"/>
  <rect x="590" y="136" width="16" height="828" rx="8" fill="#4B381B"/>
  <rect x="790" y="136" width="16" height="828" rx="8" fill="#4B381B"/>

  <g opacity="0.96">
    <rect x="152" y="200" width="28" height="134" rx="8" fill="#C68C32"/>
    <rect x="184" y="216" width="22" height="118" rx="7" fill="#E1BA74"/>
    <rect x="210" y="194" width="18" height="140" rx="7" fill="#7958A9"/>
    <rect x="232" y="204" width="34" height="130" rx="8" fill="#D5A149"/>
    <rect x="270" y="224" width="17" height="110" rx="7" fill="#9C3B3F"/>
    <rect x="291" y="187" width="25" height="147" rx="8" fill="#B07D2D"/>
    <rect x="320" y="212" width="31" height="122" rx="8" fill="#E7CC96"/>
    <rect x="355" y="198" width="20" height="136" rx="7" fill="#5A428A"/>

    <rect x="408" y="201" width="23" height="133" rx="8" fill="#D4A34E"/>
    <rect x="435" y="220" width="20" height="114" rx="7" fill="#C57E45"/>
    <rect x="459" y="190" width="18" height="144" rx="7" fill="#734E9F"/>
    <rect x="481" y="208" width="33" height="126" rx="8" fill="#E2BA73"/>
    <rect x="518" y="215" width="25" height="119" rx="8" fill="#7C2A36"/>
    <rect x="547" y="193" width="21" height="141" rx="7" fill="#C59439"/>
    <rect x="572" y="225" width="18" height="109" rx="7" fill="#E7D5AC"/>
    <rect x="614" y="201" width="27" height="133" rx="8" fill="#8A6832"/>

    <rect x="646" y="191" width="18" height="143" rx="7" fill="#E4C789"/>
    <rect x="668" y="214" width="30" height="120" rx="8" fill="#7952AC"/>
    <rect x="702" y="204" width="23" height="130" rx="8" fill="#C89137"/>
    <rect x="729" y="221" width="17" height="113" rx="7" fill="#A33F44"/>
    <rect x="750" y="196" width="25" height="138" rx="8" fill="#E0B76E"/>
    <rect x="779" y="213" width="18" height="121" rx="7" fill="#8A6D3E"/>
  </g>

  <g opacity="0.94">
    <rect x="152" y="390" width="20" height="130" rx="7" fill="#E2BD78"/>
    <rect x="176" y="410" width="33" height="110" rx="8" fill="#6A4A96"/>
    <rect x="213" y="386" width="23" height="134" rx="8" fill="#C38B31"/>
    <rect x="240" y="404" width="20" height="116" rx="7" fill="#E5D0A7"/>
    <rect x="264" y="394" width="28" height="126" rx="8" fill="#944346"/>
    <rect x="296" y="418" width="16" height="102" rx="7" fill="#CFA04B"/>
    <rect x="316" y="382" width="22" height="138" rx="8" fill="#845E28"/>
    <rect x="342" y="405" width="31" height="115" rx="8" fill="#DAB06A"/>

    <rect x="408" y="387" width="18" height="133" rx="7" fill="#6F529F"/>
    <rect x="430" y="400" width="29" height="120" rx="8" fill="#D7AA56"/>
    <rect x="463" y="390" width="22" height="130" rx="8" fill="#8C313C"/>
    <rect x="489" y="413" width="18" height="107" rx="7" fill="#E5D7B9"/>
    <rect x="511" y="382" width="25" height="138" rx="8" fill="#BD882D"/>
    <rect x="540" y="406" width="19" height="114" rx="7" fill="#C47D44"/>
    <rect x="563" y="394" width="30" height="126" rx="8" fill="#E0BE80"/>
    <rect x="615" y="384" width="22" height="136" rx="8" fill="#6E4A9B"/>

    <rect x="641" y="397" width="34" height="123" rx="8" fill="#CA973F"/>
    <rect x="679" y="417" width="16" height="103" rx="7" fill="#E7D7AF"/>
    <rect x="699" y="388" width="26" height="132" rx="8" fill="#9A454A"/>
    <rect x="729" y="403" width="20" height="117" rx="7" fill="#B8842E"/>
    <rect x="753" y="391" width="23" height="129" rx="8" fill="#E3C584"/>
    <rect x="780" y="408" width="18" height="112" rx="7" fill="#7D612F"/>
  </g>

  <g opacity="0.95">
    <rect x="152" y="580" width="24" height="132" rx="8" fill="#C58C32"/>
    <rect x="180" y="597" width="18" height="115" rx="7" fill="#E5C87E"/>
    <rect x="202" y="573" width="31" height="139" rx="8" fill="#6E519C"/>
    <rect x="237" y="589" width="20" height="123" rx="7" fill="#9A343D"/>
    <rect x="261" y="604" width="16" height="108" rx="7" fill="#D7A851"/>
    <rect x="281" y="575" width="23" height="137" rx="8" fill="#E5D8BA"/>
    <rect x="308" y="593" width="33" height="119" rx="8" fill="#9B7230"/>
    <rect x="345" y="584" width="25" height="128" rx="8" fill="#DDBA75"/>

    <rect x="408" y="578" width="20" height="134" rx="7" fill="#E3C17E"/>
    <rect x="432" y="592" width="27" height="120" rx="8" fill="#6E4C98"/>
    <rect x="463" y="581" width="17" height="131" rx="7" fill="#B9852F"/>
    <rect x="484" y="607" width="20" height="105" rx="7" fill="#EADFC4"/>
    <rect x="508" y="575" width="33" height="137" rx="8" fill="#C27F48"/>
    <rect x="545" y="593" width="22" height="119" rx="8" fill="#9B4045"/>
    <rect x="571" y="582" width="19" height="130" rx="7" fill="#D6A54A"/>
    <rect x="615" y="579" width="31" height="133" rx="8" fill="#E1C47F"/>

    <rect x="650" y="595" width="16" height="117" rx="7" fill="#7453A2"/>
    <rect x="670" y="584" width="24" height="128" rx="8" fill="#B47D28"/>
    <rect x="698" y="601" width="32" height="111" rx="8" fill="#E7D7B0"/>
    <rect x="734" y="579" width="19" height="133" rx="7" fill="#A73E42"/>
    <rect x="757" y="590" width="22" height="122" rx="8" fill="#CAA04A"/>
    <rect x="783" y="603" width="15" height="109" rx="7" fill="#7D6132"/>
  </g>

  <g opacity="0.95">
    <rect x="152" y="770" width="18" height="132" rx="7" fill="#E6C98A"/>
    <rect x="174" y="790" width="28" height="112" rx="8" fill="#7150A2"/>
    <rect x="206" y="778" width="21" height="124" rx="8" fill="#CA9437"/>
    <rect x="231" y="762" width="17" height="140" rx="7" fill="#E8DCC0"/>
    <rect x="252" y="786" width="29" height="116" rx="8" fill="#8F393E"/>
    <rect x="285" y="771" width="23" height="131" rx="8" fill="#B27E2D"/>
    <rect x="312" y="784" width="20" height="118" rx="7" fill="#D7A85B"/>
    <rect x="336" y="768" width="34" height="134" rx="8" fill="#6C4C97"/>

    <rect x="408" y="763" width="24" height="139" rx="8" fill="#C68C31"/>
    <rect x="436" y="781" width="17" height="121" rx="7" fill="#E9D6AA"/>
    <rect x="457" y="770" width="30" height="132" rx="8" fill="#7A58AC"/>
    <rect x="491" y="792" width="20" height="110" rx="7" fill="#B47C32"/>
    <rect x="515" y="759" width="21" height="143" rx="8" fill="#9F4347"/>
    <rect x="540" y="780" width="27" height="122" rx="8" fill="#DAB36C"/>
    <rect x="571" y="769" width="17" height="133" rx="7" fill="#815E2A"/>
    <rect x="614" y="777" width="32" height="125" rx="8" fill="#E2C37D"/>

    <rect x="650" y="764" width="19" height="138" rx="7" fill="#714D9F"/>
    <rect x="673" y="787" width="24" height="115" rx="8" fill="#D09E44"/>
    <rect x="701" y="770" width="17" height="132" rx="7" fill="#E8DCC2"/>
    <rect x="722" y="780" width="30" height="122" rx="8" fill="#954247"/>
    <rect x="756" y="767" width="22" height="135" rx="8" fill="#B6802B"/>
    <rect x="782" y="790" width="16" height="112" rx="7" fill="#E0BE7E"/>
  </g>

  <rect x="124" y="986" width="712" height="34" rx="17" fill="#3A2A15"/>
  <ellipse cx="480" cy="1042" rx="282" ry="46" fill="url(#floorGlow)" opacity="0.55"/>
  <ellipse cx="480" cy="110" rx="300" ry="90" fill="url(#topGlow)" opacity="0.42"/>

  <defs>
    <radialGradient id="bgGlow" cx="0" cy="0" r="1" gradientUnits="userSpaceOnUse" gradientTransform="translate(648 164) rotate(123.561) scale(945.719 1049.61)">
      <stop stop-color="#342858"/>
      <stop offset="0.48" stop-color="#161126"/>
      <stop offset="1" stop-color="#0B0915"/>
    </radialGradient>
    <radialGradient id="floorGlow" cx="0" cy="0" r="1" gradientUnits="userSpaceOnUse" gradientTransform="translate(480 1042) rotate(90) scale(46 282)">
      <stop stop-color="#E3B75A"/>
      <stop offset="1" stop-color="#E3B75A" stop-opacity="0"/>
    </radialGradient>
    <radialGradient id="topGlow" cx="0" cy="0" r="1" gradientUnits="userSpaceOnUse" gradientTransform="translate(480 110) rotate(90) scale(90 300)">
      <stop stop-color="#F2D089"/>
      <stop offset="1" stop-color="#F2D089" stop-opacity="0"/>
    </radialGradient>
  </defs>
</svg>
